{"title":"The Boxtrolls 2014 HDRip x264 AAC-MiLLENiUM","uid":11542968,"size":989274229,"categoryP":"video","categoryS":"movies","magnet":"?xt=urn:btih:570b055f6893f607e1e303aa80d5cf1fc419aa8d&amp;dn=The+Boxtrolls+2014+HDRip+x264+AAC-MiLLENiUM&amp;tr=udp%3A%2F%2Ftracker.openbittorrent.com%3A80&amp;tr=udp%3A%2F%2Fopen.demonii.com%3A1337&amp;tr=udp%3A%2F%2Ftracker.coppersurfer.tk%3A6969&amp;tr=udp%3A%2F%2Fexodus.desync.com%3A6969","seeders":4,"leechers":0,"uploader":"sceneline","files":4,"time":1416688121,"description":" &lt;a href=&quot;http://www.scenebyte.com&quot; rel=&quot;nofollow&quot; target=&quot;_NEW&quot;&gt;http://www.scenebyte.com&lt;/a&gt;\n\nSign up is OPEN - for time being. Come and have fun.[img]http://i.imgur.com/VLIooZy.jpg[/img]\n \n[color=red][b]The Boxtrolls 2014 HDRip x264 AAC-MiLLENiUM[/b][/color]\n\n[color=red]General[/color]\n\nSource...............: 1080p.WEB-DL.AAC2.0.H264-RARBG [THANKS]\nIMDb Information.... : http://www.imdb.com/title/tt0787474/\nSample Included......: yes\n\nGeneral\nComplete name                            : The Boxtrolls 2014 HDRip x264 AAC-MiLLENiUM.mp4\nFormat                                   : MPEG-4\nFormat profile                           : Base Media\nCodec ID                                 : isom\nFile size                                : 917 MiB\nDuration                                 : 1h 36mn\nOverall bit rate mode                    : Variable\nOverall bit rate                         : 1 333 Kbps\nEncoded date                             : UTC 2014-11-22 18:55:32\nTagged date                              : UTC 2014-11-22 18:55:32\n\nVideo\nID                                       : 1\nFormat                                   : AVC\nFormat/Info                              : Advanced Video Codec\nFormat profile                           : &lt;a class=&quot;__cf_email__&quot; href=&quot;/cdn-cgi/l/email-protection&quot; data-cfemail=&quot;5f173638371f136b716e&quot;&gt;[email&amp;#160;protected]&lt;/a&gt;&lt;script cf-hash='f9e31' type=&quot;text/javascript&quot;&gt;\n/* &lt;![CDATA[ */!function(){try{var t=&quot;currentScript&quot;in document?document.currentScript:function(){for(var t=document.getElementsByTagName(&quot;script&quot;),e=t.length;e--;)if(t[e].getAttribute(&quot;cf-hash&quot;))return t[e]}();if(t&amp;&amp;t.previousSibling){var e,r,n,i,c=t.previousSibling,a=c.getAttribute(&quot;data-cfemail&quot;);if(a){for(e=&quot;&quot;,r=parseInt(a.substr(0,2),16),n=2;a.length-n;n+=2)i=parseInt(a.substr(n,2),16)^r,e+=String.fromCharCode(i);e=document.createTextNode(e),c.parentNode.replaceChild(e,c)}}}catch(u){}}();/* ]]&gt; */&lt;/script&gt;\nFormat settings, CABAC                   : Yes\nFormat settings, ReFrames                : 3 frames\nFormat settings, GOP                     : M=4, N=23\nCodec ID                                 : avc1\nCodec ID/Info                            : Advanced Video Coding\nDuration                                 : 1h 36mn\nBit rate mode                            : Variable\nBit rate                                 : 1 116 Kbps\nMaximum bit rate                         : 40.0 Mbps\nWidth                                    : 720 pixels\nHeight                                   : 400 pixels\nDisplay aspect ratio                     : 16:9\nFrame rate mode                          : Constant\nFrame rate                               : 23.976 fps\nColor space                              : YUV\nChroma subsampling                       : 4:2:0\nBit depth                                : 8 bits\nScan type                                : Progressive\nBits/(Pixel*Frame)                       : 0.162\nStream size                              : 767 MiB (84%)\nWriting library                          : x264 core 142 r2479 dd79a61\nColor range                              : Full\n\nAudio\nID                                       : 2\nFormat                                   : AAC\nFormat/Info                              : Advanced Audio Codec\nFormat profile                           : LC\nCodec ID                                 : 40\nDuration                                 : 1h 36mn\nBit rate mode                            : Variable\nBit rate                                 : 214 Kbps\nMaximum bit rate                         : 319 Kbps\nChannel(s)                               : 2 channels\nChannel positions                        : Front: L R\nSampling rate                            : 48.0 KHz\nCompression mode                         : Lossy\nStream size                              : 147 MiB (16%)\nLanguage                                 : English\nEncoded date                             : UTC 2014-11-22 18:56:04\nTagged date                              : UTC 2014-11-22 18:56:38\n\n[color=red]Plot[/color]\n\nA young orphaned boy raised by underground cave-dwelling trash collectors tries to save his friends from an evil exterminator. \n \n[color=red]Screenshots[/color]\n\n[img]http://s3.postimg.org/9ef8gnqdv/vlcsnap_2014_11_22_19h01m31s136.jpg[/img]\n[img]http://s3.postimg.org/djq52ko5v/vlcsnap_2014_11_22_19h01m40s233.jpg[/img]\n[img]http://s3.postimg.org/yj68u2pub/vlcsnap_2014_11_22_19h03m01s30.jpg[/img]\n[img]http://s3.postimg.org/40gg940nn/vlcsnap_2014_11_22_19h04m55s131.jpg[/img]\n[img]http://s3.postimg.org/vevkxa91v/vlcsnap_2014_11_22_19h05m05s226.jpg[/img]","torrent":{"xt":"urn:btih:570b055f6893f607e1e303aa80d5cf1fc419aa8d","amp;dn":"The+Boxtrolls+2014+HDRip+x264+AAC-MiLLENiUM","amp;tr":["udp%3A%2F%2Ftracker.openbittorrent.com%3A80","udp%3A%2F%2Fopen.demonii.com%3A1337","udp%3A%2F%2Ftracker.coppersurfer.tk%3A6969","udp%3A%2F%2Fexodus.desync.com%3A6969"],"infoHash":"570b055f6893f607e1e303aa80d5cf1fc419aa8d","infoHashBuffer":{"type":"Buffer","data":[87,11,5,95,104,147,246,7,225,227,3,170,128,213,207,31,196,25,170,141]},"announce":[],"urlList":[]}}